<?xml version="1.0" encoding="utf-8"?>
<!-- Generator: Adobe Illustrator 24.3.0, SVG Export Plug-In . SVG Version: 6.00 Build 0)  -->
<svg version="1.1" id="_x30_" xmlns="http://www.w3.org/2000/svg" xmlns:xlink="http://www.w3.org/1999/xlink" x="0px" y="0px"
	 viewBox="0 0 841.89 595.28" style="enable-background:new 0 0 841.89 595.28;" xml:space="preserve">
<style type="text/css">
	.st0{fill:none;stroke:#000000;stroke-width:0.7087;stroke-linecap:round;stroke-linejoin:round;stroke-miterlimit:10;}
</style>
<g id="CIRCLE">
	<path class="st0" d="M552.39,318.04c0-3.91,3.17-7.09,7.09-7.09c3.91,0,7.09,3.17,7.09,7.09c0,3.91-3.17,7.09-7.09,7.09
		C555.56,325.12,552.39,321.95,552.39,318.04L552.39,318.04z"/>
</g>
<g id="CIRCLE_1_">
	<path class="st0" d="M552.39,275.52c0-3.91,3.17-7.09,7.09-7.09c3.91,0,7.09,3.17,7.09,7.09c0,3.91-3.17,7.09-7.09,7.09
		C555.56,282.6,552.39,279.43,552.39,275.52L552.39,275.52z"/>
</g>
<g id="LWPOLYLINE">
	<path class="st0" d="M584.13,91.26v155.91c0,2.98,1.87,5.65,4.68,6.66c2.81,1.01,4.68,3.68,4.68,6.66v72.55
		c0,2.98-1.87,5.65-4.68,6.66c-2.81,1.01-4.68,3.68-4.68,6.66v155.91c0,3.91-3.17,7.09-7.09,7.09H255.6c-3.91,0-7.09-3.17-7.09-7.09
		V91.26c0-3.91,3.17-7.09,7.09-7.09h321.45C580.96,84.18,584.13,87.35,584.13,91.26z"/>
</g>
</svg>
