<?xml version="1.0" encoding="utf-8"?>
<!-- Generator: Adobe Illustrator 24.3.0, SVG Export Plug-In . SVG Version: 6.00 Build 0)  -->
<svg version="1.1" id="_x30_" xmlns="http://www.w3.org/2000/svg" xmlns:xlink="http://www.w3.org/1999/xlink" x="0px" y="0px"
	 viewBox="0 0 841.89 595.28" style="enable-background:new 0 0 841.89 595.28;" xml:space="preserve">
<style type="text/css">
	.st0{fill:none;stroke:#000000;stroke-width:0.7087;stroke-linecap:round;stroke-linejoin:round;stroke-miterlimit:10;}
</style>
<g id="CIRCLE">
	<path class="st0" d="M559.85,103.5c0-3.13,2.54-5.67,5.67-5.67c3.13,0,5.67,2.54,5.67,5.67c0,3.13-2.54,5.67-5.67,5.67
		C562.39,109.17,559.85,106.64,559.85,103.5L559.85,103.5z"/>
</g>
<g id="CIRCLE_1_">
	<path class="st0" d="M559.85,490.05c0-3.13,2.54-5.67,5.67-5.67c3.13,0,5.67,2.54,5.67,5.67c0,3.13-2.54,5.67-5.67,5.67
		C562.39,495.72,559.85,493.18,559.85,490.05L559.85,490.05z"/>
</g>
<g id="CIRCLE_2_">
	<path class="st0" d="M280.17,490.05c0-3.13,2.54-5.67,5.67-5.67c3.13,0,5.67,2.54,5.67,5.67c0,3.13-2.54,5.67-5.67,5.67
		C282.7,495.72,280.17,493.18,280.17,490.05L280.17,490.05z"/>
</g>
<g id="CIRCLE_3_">
	<path class="st0" d="M280.17,103.5c0-3.13,2.54-5.67,5.67-5.67c3.13,0,5.67,2.54,5.67,5.67c0,3.13-2.54,5.67-5.67,5.67
		C282.7,109.17,280.17,106.64,280.17,103.5L280.17,103.5z"/>
</g>
<g id="CIRCLE_4_">
	<path class="st0" d="M275.44,275.52c0-3.91,3.17-7.09,7.09-7.09s7.09,3.17,7.09,7.09c0,3.91-3.17,7.09-7.09,7.09
		S275.44,279.43,275.44,275.52L275.44,275.52z"/>
</g>
<g id="CIRCLE_5_">
	<path class="st0" d="M275.44,318.04c0-3.91,3.17-7.09,7.09-7.09s7.09,3.17,7.09,7.09c0,3.91-3.17,7.09-7.09,7.09
		S275.44,321.95,275.44,318.04L275.44,318.04z"/>
</g>
<g id="LWPOLYLINE">
	<path class="st0" d="M432.76,473.94V346.38c0-3.91-3.17-7.09-7.09-7.09c-3.91,0-7.09,3.17-7.09,7.09v127.56
		c0,3.91,3.17,7.09,7.09,7.09C429.59,481.03,432.76,477.85,432.76,473.94z"/>
</g>
<g id="LWPOLYLINE_1_">
	<path class="st0" d="M253.19,339.72c-2.81-1.01-4.68-3.68-4.68-6.66V260.5c0-2.98,1.87-5.65,4.68-6.66
		c2.81-1.01,4.68-3.68,4.68-6.66V91.26c0-3.91,3.17-7.09,7.09-7.09H586.4c3.91,0,7.09,3.17,7.09,7.09v411.02
		c0,3.91-3.17,7.09-7.09,7.09H264.95c-3.91,0-7.09-3.17-7.09-7.09V346.38C257.87,343.4,256,340.73,253.19,339.72z"/>
</g>
<g id="LWPOLYLINE_2_">
	<path class="st0" d="M418.59,119.61v127.56c0,3.91,3.17,7.09,7.09,7.09c3.91,0,7.09-3.17,7.09-7.09V119.61
		c0-3.91-3.17-7.09-7.09-7.09C421.76,112.52,418.59,115.7,418.59,119.61z"/>
</g>
</svg>
