<?xml version="1.0" encoding="utf-8"?>
<!-- Generator: Adobe Illustrator 24.3.0, SVG Export Plug-In . SVG Version: 6.00 Build 0)  -->
<svg version="1.1" id="_x30_" xmlns="http://www.w3.org/2000/svg" xmlns:xlink="http://www.w3.org/1999/xlink" x="0px" y="0px"
	 viewBox="0 0 841.89 595.28" style="enable-background:new 0 0 841.89 595.28;" xml:space="preserve">
<style type="text/css">
	.st0{fill:none;stroke:#000000;stroke-width:0.25;stroke-miterlimit:10;}
</style>
<g id="CIRCLE">
	<path class="st0" d="M414.41,318.54c0-3.91,3.17-7.09,7.09-7.09s7.09,3.17,7.09,7.09c0,3.91-3.17,7.09-7.09,7.09
		S414.41,322.45,414.41,318.54L414.41,318.54z"/>
</g>
<g id="CIRCLE_1_">
	<path class="st0" d="M414.41,276.02c0-3.91,3.17-7.09,7.09-7.09s7.09,3.17,7.09,7.09c0,3.91-3.17,7.09-7.09,7.09
		S414.41,279.93,414.41,276.02L414.41,276.02z"/>
</g>
<g id="LWPOLYLINE">
	<path class="st0" d="M394.57,339.8c-3.91,0-7.09-3.17-7.09-7.09v-70.87c0-3.91,3.17-7.09,7.09-7.09h53.86
		c3.91,0,7.09,3.17,7.09,7.09v70.87c0,3.91-3.17,7.09-7.09,7.09H394.57z"/>
</g>
</svg>
