<?xml version="1.0" encoding="utf-8"?>
<!-- Generator: Adobe Illustrator 24.3.0, SVG Export Plug-In . SVG Version: 6.00 Build 0)  -->
<svg version="1.1" id="_x30_" xmlns="http://www.w3.org/2000/svg" xmlns:xlink="http://www.w3.org/1999/xlink" x="0px" y="0px"
	 viewBox="0 0 841.89 595.28" style="enable-background:new 0 0 841.89 595.28;" xml:space="preserve">
<style type="text/css">
	.st0{fill:none;stroke:#000000;stroke-width:0.5;stroke-miterlimit:10;}
</style>
<g id="LWPOLYLINE">
	<path class="st0" d="M242.21,339.3c-7.83,0-14.17-6.35-14.17-14.17v-56.69c0-7.83,6.35-14.17,14.17-14.17h32.6
		c7.83,0,14.17-6.35,14.17-14.17V98.35c0-7.83,6.35-14.17,14.17-14.17h297.64c7.83,0,14.17,6.35,14.17,14.17V495.2
		c0,7.83-6.35,14.17-14.17,14.17H303.15c-7.83,0-14.17-6.35-14.17-14.17V353.47c0-7.83-6.35-14.17-14.17-14.17H242.21z"/>
</g>
<g id="LWPOLYLINE_1_">
	<path class="st0" d="M444.89,119.61v127.56c0,3.91,3.17,7.09,7.09,7.09s7.09-3.17,7.09-7.09V119.61c0-3.91-3.17-7.09-7.09-7.09
		S444.89,115.7,444.89,119.61z"/>
</g>
<g id="CIRCLE">
	<path class="st0" d="M304.57,296.78c0-3.13,2.54-5.67,5.67-5.67c3.13,0,5.67,2.54,5.67,5.67s-2.54,5.67-5.67,5.67
		C307.11,302.44,304.57,299.91,304.57,296.78L304.57,296.78z"/>
</g>
<g id="CIRCLE_1_">
	<path class="st0" d="M250.71,296.78c0-3.13,2.54-5.67,5.67-5.67c3.13,0,5.67,2.54,5.67,5.67s-2.54,5.67-5.67,5.67
		C253.25,302.44,250.71,299.91,250.71,296.78L250.71,296.78z"/>
</g>
<g id="LWPOLYLINE_2_">
	<path class="st0" d="M444.89,346.38c0-3.91,3.17-7.09,7.09-7.09s7.09,3.17,7.09,7.09v127.56c0,3.91-3.17,7.09-7.09,7.09
		s-7.09-3.17-7.09-7.09V346.38z"/>
</g>
</svg>
