<?xml version="1.0" encoding="utf-8"?>
<!-- Generator: Adobe Illustrator 24.3.0, SVG Export Plug-In . SVG Version: 6.00 Build 0)  -->
<svg version="1.1" id="_x30_" xmlns="http://www.w3.org/2000/svg" xmlns:xlink="http://www.w3.org/1999/xlink" x="0px" y="0px"
	 viewBox="0 0 841.89 595.28" style="enable-background:new 0 0 841.89 595.28;" xml:space="preserve">
<style type="text/css">
	.st0{fill:none;stroke:#000000;stroke-width:0.7087;stroke-linecap:round;stroke-linejoin:round;stroke-miterlimit:10;}
</style>
<g id="CIRCLE">
	<path class="st0" d="M388.4,297.28c0-3.13,2.54-5.67,5.67-5.67s5.67,2.54,5.67,5.67s-2.54,5.67-5.67,5.67
		S388.4,300.41,388.4,297.28L388.4,297.28z"/>
</g>
<g id="CIRCLE_1_">
	<path class="st0" d="M442.26,297.28c0-3.13,2.54-5.67,5.67-5.67s5.67,2.54,5.67,5.67s-2.54,5.67-5.67,5.67
		S442.26,300.41,442.26,297.28L442.26,297.28z"/>
</g>
<g id="LWPOLYLINE">
	<path class="st0" d="M379.9,254.76h82.2c7.83,0,14.17,6.35,14.17,14.17v56.69c0,7.83-6.35,14.17-14.17,14.17h-82.2
		c-7.83,0-14.17-6.35-14.17-14.17v-56.69C365.72,261.1,372.07,254.76,379.9,254.76z"/>
</g>
</svg>
